<?xml version="1.0" standalone="no"?>
<!DOCTYPE svg PUBLIC "-//W3C//DTD SVG 20010904//EN"
 "http://www.w3.org/TR/2001/REC-SVG-20010904/DTD/svg10.dtd">
<svg version="1.0" xmlns="http://www.w3.org/2000/svg"
 width="523.000000pt" height="230.000000pt" viewBox="0 0 523.000000 230.000000"
 preserveAspectRatio="xMidYMid meet">

<g transform="translate(0.000000,230.000000) scale(0.100000,-0.100000)"
fill="#000000" stroke="none">
<path d="M0 1150 l0 -1150 2615 0 2615 0 0 1150 0 1150 -2615 0 -2615 0 0
-1150z m2504 920 c15 -30 70 -114 121 -186 142 -197 183 -293 172 -398 -6 -56
-42 -140 -73 -168 -18 -16 -19 -15 -16 44 3 53 0 69 -33 134 -28 58 -62 101
-159 202 -68 71 -134 149 -147 173 -46 88 -21 227 59 319 l37 44 6 -55 c3 -30
18 -80 33 -109z m-44 -416 c0 -36 36 -104 105 -199 76 -105 95 -148 95 -215 0
-41 -6 -65 -25 -95 l-24 -40 -1 38 c0 57 -39 122 -134 225 -110 120 -121 166
-60 269 28 49 44 55 44 17z m-1850 -863 c5 -11 10 -54 10 -95 0 -42 3 -76 8
-76 4 0 16 7 26 15 33 25 94 19 125 -13 30 -30 38 -71 43 -235 3 -86 -3 -97
-58 -97 -49 0 -58 20 -64 144 -5 107 -6 111 -28 114 -45 7 -52 -11 -52 -140
l0 -119 -52 3 -53 3 -3 258 -2 257 44 0 c35 0 48 -5 56 -19z m4401 -1 c20 -11
26 -54 10 -78 -8 -14 -81 -19 -100 -8 -15 10 -14 69 1 84 15 15 63 16 89 2z
m-4611 -26 c44 -18 48 -30 25 -74 l-15 -29 -42 15 c-58 20 -115 21 -135 1 -26
-26 -8 -44 84 -89 110 -54 137 -88 131 -166 -8 -89 -72 -136 -188 -135 -60 1
-170 37 -170 56 0 13 37 77 44 77 2 0 23 -9 47 -20 52 -23 121 -26 139 -6 6 8
10 25 8 38 -2 18 -22 32 -89 64 -104 51 -129 78 -129 145 0 42 5 55 33 85 59
64 156 78 257 38z m1972 -1 c9 -10 31 -59 50 -110 l34 -92 43 109 42 110 42 0
c23 0 47 -4 53 -8 8 -5 -11 -59 -57 -167 -64 -151 -68 -165 -69 -237 l0 -78
-55 0 -55 0 0 74 c0 70 -4 85 -69 235 -62 143 -67 162 -53 171 27 15 78 11 94
-7z m-362 -63 l0 -50 40 0 c34 0 41 -4 46 -25 10 -41 -1 -55 -46 -55 l-41 0 3
-92 3 -93 30 -3 c34 -4 45 -16 45 -53 0 -30 -19 -39 -82 -39 -49 0 -83 16 -97
47 -6 13 -11 71 -11 128 l0 105 -31 0 c-29 0 -30 2 -27 38 3 32 7 37 31 40 23
3 27 8 27 33 0 53 15 69 65 69 l45 0 0 -50z m2480 0 l0 -50 45 0 45 0 0 -40 0
-40 -45 0 -45 0 0 -72 c0 -102 6 -116 44 -120 28 -3 31 -7 34 -40 3 -35 2 -37
-33 -44 -45 -8 -104 1 -123 19 -20 21 -31 82 -32 175 0 80 -1 82 -24 82 -26 0
-35 18 -28 58 3 15 11 22 27 22 18 0 24 7 30 38 9 51 21 62 66 62 l39 0 0 -50z
m270 0 l0 -50 39 0 c43 0 59 -21 46 -60 -5 -16 -15 -20 -46 -20 l-40 0 3 -92
3 -93 32 -3 c28 -3 33 -8 39 -38 3 -19 4 -38 0 -41 -12 -12 -107 -15 -135 -4
-41 18 -51 49 -51 166 l0 105 -30 0 c-28 0 -30 2 -30 40 0 38 2 40 30 40 27 0
30 3 30 31 0 53 15 69 65 69 l45 0 0 -50z m-3643 -61 c44 -16 56 -52 63 -187
4 -72 4 -135 -2 -144 -11 -22 -37 -23 -67 -2 -22 16 -26 16 -54 -1 -17 -10
-50 -18 -74 -18 -78 0 -129 75 -99 146 22 52 50 70 116 75 49 4 60 8 60 22 0
35 -25 44 -87 31 -63 -12 -70 -9 -79 36 -7 34 -18 29 121 57 22 4 69 -2 102
-15z m643 -8 c41 -29 50 -59 50 -166 0 -63 4 -105 11 -112 9 -9 8 -18 -5 -37
-19 -30 -42 -33 -75 -9 -20 13 -27 14 -44 3 -84 -52 -187 -10 -187 76 0 80 48
124 138 124 56 0 67 14 35 45 -16 17 -28 17 -110 0 -30 -7 -32 -5 -41 26 -5
19 -6 37 -2 42 12 14 134 36 170 31 19 -3 46 -13 60 -23z m1113 7 c42 -22 57
-67 57 -175 0 -57 4 -105 10 -108 15 -9 -17 -65 -38 -65 -10 0 -28 7 -41 16
-21 15 -26 15 -50 2 -43 -25 -78 -29 -115 -14 -44 18 -66 51 -66 101 0 72 39
106 130 115 48 4 55 7 52 25 -7 37 -24 40 -118 20 -29 -6 -32 -4 -43 26 -16
46 -16 47 42 58 28 6 61 13 72 15 26 5 84 -3 108 -16z m599 12 c20 -6 48 -24
62 -41 24 -28 26 -38 26 -124 0 -52 5 -106 10 -121 8 -20 7 -32 -5 -50 -18
-28 -30 -29 -68 -9 -22 11 -34 12 -49 4 -93 -50 -188 -7 -188 84 0 71 54 117
140 117 42 0 50 3 50 19 0 36 -26 46 -88 33 -51 -11 -58 -10 -69 5 -7 9 -13
27 -13 39 0 19 8 24 58 34 31 7 62 14 67 15 18 6 30 5 67 -5z m348 -6 c31 -13
44 -14 53 -5 36 36 87 -11 68 -63 -6 -15 -11 -91 -11 -170 0 -127 -2 -146 -22
-186 -28 -56 -73 -80 -147 -80 -55 0 -131 18 -131 30 0 4 5 21 11 39 11 30 13
31 48 24 87 -18 131 -2 131 49 0 25 -2 27 -19 18 -30 -15 -94 -12 -120 6 -36
26 -61 90 -61 161 0 73 11 107 48 147 46 49 86 56 152 30z m423 -6 c38 -20 49
-55 57 -185 4 -75 4 -135 -2 -145 -11 -22 -37 -23 -67 -2 -22 16 -26 16 -53
-1 -37 -22 -97 -24 -131 -6 -62 33 -70 125 -16 177 23 22 40 29 89 32 49 4 60
8 60 22 0 35 -25 44 -88 31 -50 -10 -58 -9 -69 6 -7 9 -13 27 -13 39 0 23 2
24 125 48 25 5 85 -4 108 -16z m-2914 -13 l30 -26 25 26 c19 18 36 25 66 25
35 0 40 -3 40 -24 0 -12 -5 -36 -10 -53 -9 -25 -15 -29 -39 -25 -20 3 -36 -3
-50 -17 -19 -19 -21 -33 -21 -132 l0 -110 -52 3 -53 3 -5 140 c-3 77 -9 148
-14 157 -10 22 10 58 34 58 10 0 32 -11 49 -25z m1759 -3 l25 -27 28 27 c20
20 38 28 63 28 19 0 37 -4 40 -9 3 -4 0 -28 -7 -52 -12 -39 -16 -44 -39 -41
-15 2 -36 -2 -47 -8 -18 -9 -21 -22 -23 -128 l-3 -117 -55 0 -55 0 -5 140 c-3
77 -8 145 -13 152 -4 6 -2 23 4 37 16 35 54 34 87 -2z m1927 3 c24 -24 25 -28
25 -180 l0 -155 -55 0 -54 0 -3 133 c-3 126 -4 132 -25 142 -17 7 -23 18 -23
41 0 41 5 44 62 44 39 0 54 -5 73 -25z"/>
<path d="M990 425 c-6 -8 -9 -23 -5 -35 5 -17 13 -20 38 -18 28 3 32 7 35 36
3 30 1 32 -26 32 -16 0 -35 -7 -42 -15z"/>
<path d="M1624 426 c-10 -27 1 -51 24 -54 30 -5 52 14 52 44 0 21 -5 24 -35
24 -22 0 -38 -6 -41 -14z"/>
<path d="M2744 426 c-10 -27 1 -51 24 -54 30 -5 52 14 52 44 0 21 -5 24 -35
24 -22 0 -38 -6 -41 -14z"/>
<path d="M3382 428 c-17 -17 -15 -47 3 -54 8 -4 26 -3 40 0 20 5 25 13 25 36
0 26 -4 30 -28 30 -15 0 -33 -5 -40 -12z"/>
<path d="M3752 557 c-19 -22 -26 -101 -12 -141 8 -27 17 -36 33 -36 43 0 48
12 45 101 -3 82 -4 84 -29 87 -14 2 -31 -3 -37 -11z"/>
<path d="M4112 428 c-17 -17 -15 -47 3 -54 8 -4 26 -3 40 0 20 5 25 13 25 36
0 26 -4 30 -28 30 -15 0 -33 -5 -40 -12z"/>
</g>
</svg>
