<?xml version="1.0" standalone="no"?>
<!DOCTYPE svg PUBLIC "-//W3C//DTD SVG 20010904//EN"
 "http://www.w3.org/TR/2001/REC-SVG-20010904/DTD/svg10.dtd">
<svg version="1.0" xmlns="http://www.w3.org/2000/svg"
 width="588.000000pt" height="242.000000pt" viewBox="0 0 588.000000 242.000000"
 preserveAspectRatio="xMidYMid meet">

<g transform="translate(0.000000,242.000000) scale(0.100000,-0.100000)"
fill="#000000" stroke="none">
<path d="M0 1210 l0 -1210 2940 0 2940 0 0 1210 0 1210 -2940 0 -2940 0 0
-1210z m2886 868 c14 -29 68 -111 119 -183 145 -202 182 -288 172 -395 -5 -58
-41 -143 -73 -172 -18 -16 -19 -14 -19 55 0 65 -4 79 -39 140 -25 45 -79 112
-156 191 -65 67 -128 142 -141 167 -48 90 -21 229 62 324 l34 38 7 -56 c4 -31
19 -80 34 -109z m-46 -413 c0 -37 17 -70 97 -187 41 -59 80 -123 88 -142 24
-56 19 -134 -10 -181 l-24 -40 -1 38 c0 57 -39 122 -134 225 -110 120 -121
166 -60 269 28 48 44 55 44 18z m-1852 -857 c7 -7 12 -44 12 -95 l0 -84 30 16
c83 43 152 2 163 -97 4 -29 8 -93 9 -141 2 -97 -2 -107 -58 -107 -49 0 -58 20
-64 144 -5 107 -6 111 -28 114 -45 7 -52 -11 -52 -140 l0 -119 -52 3 -53 3 -3
258 -2 257 43 0 c24 0 48 -5 55 -12z m4411 -12 c7 -8 11 -29 9 -47 -2 -26 -9
-34 -30 -40 -16 -4 -40 -4 -55 0 -24 6 -29 13 -31 46 -2 24 2 41 10 46 21 14
85 10 97 -5z m-4619 -22 c44 -18 48 -30 25 -74 l-15 -29 -41 14 c-82 29 -162
13 -145 -30 3 -8 45 -34 93 -57 104 -51 133 -85 133 -159 0 -54 -29 -98 -83
-125 -47 -25 -161 -21 -226 6 -48 21 -52 25 -46 49 3 14 14 34 24 44 17 17 19
17 62 -2 49 -23 119 -27 137 -9 19 19 14 54 -10 70 -13 8 -45 23 -72 33 -27
11 -67 35 -88 55 -34 34 -38 42 -38 89 0 44 5 56 33 87 59 64 156 78 257 38z
m1972 -1 c9 -10 31 -59 50 -110 l34 -92 43 109 42 110 42 0 c23 0 47 -4 53 -8
8 -5 -11 -59 -57 -167 -64 -151 -68 -165 -69 -237 l0 -78 -55 0 -55 0 0 74 c0
70 -4 85 -69 235 -62 143 -67 162 -53 171 27 15 78 11 94 -7z m-362 -63 l0
-50 40 0 c34 0 41 -4 46 -25 10 -41 -1 -55 -46 -55 l-41 0 3 -92 3 -93 30 -3
c34 -4 45 -16 45 -53 0 -30 -19 -39 -82 -39 -49 0 -83 16 -97 47 -6 13 -11 71
-11 128 l0 105 -31 0 c-29 0 -30 2 -27 38 3 32 7 37 31 40 23 3 27 8 27 33 0
53 15 69 65 69 l45 0 0 -50z m2480 0 l0 -50 45 0 45 0 0 -40 0 -40 -45 0 -45
0 0 -72 c0 -102 6 -116 44 -120 27 -3 31 -7 34 -37 4 -41 -8 -51 -68 -51 -95
0 -119 37 -119 188 -1 91 -1 92 -25 92 -26 0 -35 18 -28 58 3 15 11 22 27 22
18 0 24 7 30 38 9 51 21 62 66 62 l39 0 0 -50z m270 0 l0 -50 40 0 c34 0 41
-4 46 -25 10 -41 -1 -55 -46 -55 l-41 0 3 -92 3 -93 30 -3 c34 -4 45 -16 45
-53 0 -30 -19 -39 -83 -39 -41 0 -75 14 -94 39 -8 10 -12 56 -13 129 l0 112
-30 0 c-28 0 -30 2 -30 40 0 38 2 40 30 40 27 0 30 3 30 31 0 53 15 69 65 69
l45 0 0 -50z m-3637 -62 c39 -20 50 -56 57 -186 4 -72 4 -135 -2 -144 -11 -22
-37 -23 -67 -2 -22 16 -26 16 -54 -1 -17 -10 -50 -18 -74 -18 -78 0 -129 75
-99 146 22 52 50 70 116 75 49 4 60 8 60 22 0 35 -26 44 -86 31 -62 -14 -71
-10 -80 36 -7 34 -14 30 121 57 25 5 85 -4 108 -16z m637 -7 c41 -29 50 -59
50 -166 0 -63 4 -105 11 -112 9 -9 8 -18 -5 -37 -19 -30 -42 -33 -75 -9 -20
13 -27 14 -44 3 -84 -52 -187 -10 -187 76 0 78 49 124 132 124 49 0 62 8 52
34 -9 24 -40 29 -95 16 -28 -7 -52 -10 -55 -7 -2 2 -9 18 -14 36 -10 37 2 46
82 60 66 11 115 5 148 -18z m1113 7 c42 -22 57 -67 57 -175 0 -57 4 -105 10
-108 15 -9 -17 -65 -38 -65 -10 0 -28 7 -41 16 -21 15 -26 15 -50 2 -43 -25
-78 -29 -115 -14 -44 18 -66 51 -66 101 0 72 39 106 130 115 48 4 55 7 52 25
-7 37 -24 40 -118 20 -29 -6 -32 -4 -43 26 -16 46 -16 47 42 58 28 6 61 13 72
15 26 5 84 -3 108 -16z m599 12 c20 -6 48 -24 62 -41 24 -28 26 -38 26 -124 0
-52 5 -106 10 -121 8 -20 7 -32 -5 -50 -18 -28 -30 -29 -68 -9 -22 11 -34 12
-49 4 -93 -50 -188 -7 -188 84 0 71 54 117 140 117 42 0 50 3 50 19 0 36 -26
46 -88 33 -51 -11 -58 -10 -69 5 -7 9 -13 27 -13 39 0 19 8 24 58 34 31 7 62
14 67 15 18 6 30 5 67 -5z m348 -6 c31 -13 44 -14 53 -5 6 6 21 11 34 11 33 0
49 -38 34 -81 -6 -18 -11 -93 -11 -168 0 -122 -2 -142 -22 -181 -28 -56 -73
-80 -147 -80 -55 0 -131 18 -131 30 0 4 5 21 11 39 11 30 13 31 48 24 87 -18
131 -2 131 49 0 25 -2 27 -19 18 -30 -15 -94 -12 -120 6 -61 43 -82 191 -38
274 23 45 74 80 114 80 12 0 41 -7 63 -16z m421 -5 c40 -21 51 -55 59 -186 10
-164 0 -184 -71 -147 -23 11 -34 12 -44 4 -26 -21 -78 -30 -117 -19 -63 17
-94 88 -64 151 22 46 63 68 125 68 43 0 51 3 51 19 0 36 -25 45 -87 31 -52
-11 -58 -11 -70 6 -7 10 -13 28 -13 40 0 19 8 24 58 34 31 7 62 14 67 16 16 5
85 -6 106 -17z m-2912 -14 l30 -26 25 26 c19 18 36 25 66 25 35 0 40 -3 40
-24 0 -12 -5 -36 -10 -53 -9 -25 -15 -29 -39 -25 -20 3 -36 -3 -50 -17 -19
-19 -21 -33 -21 -132 l0 -110 -52 3 -53 3 -5 140 c-3 77 -9 148 -14 157 -10
22 10 58 34 58 10 0 32 -11 49 -25z m1759 -3 l25 -27 28 27 c20 20 38 28 63
28 19 0 37 -4 40 -9 3 -4 0 -28 -7 -52 -12 -39 -16 -44 -39 -41 -15 2 -36 -2
-47 -8 -18 -9 -21 -22 -23 -128 l-3 -117 -55 0 -55 0 -5 140 c-3 77 -8 145
-13 152 -4 6 -2 23 4 37 16 35 54 34 87 -2z m1927 3 c24 -24 25 -28 25 -180
l0 -155 -55 0 -54 0 -3 133 c-3 126 -4 132 -25 142 -17 7 -23 18 -23 41 0 41
5 44 62 44 39 0 54 -5 73 -25z"/>
<path d="M1370 431 c-16 -31 -2 -53 34 -49 27 3 31 7 34 36 3 30 1 32 -27 32
-20 0 -34 -7 -41 -19z"/>
<path d="M2004 436 c-10 -27 1 -51 24 -54 30 -5 52 14 52 44 0 21 -5 24 -35
24 -22 0 -38 -6 -41 -14z"/>
<path d="M3124 436 c-10 -27 1 -51 24 -54 30 -5 52 14 52 44 0 21 -5 24 -35
24 -22 0 -38 -6 -41 -14z"/>
<path d="M3762 438 c-17 -17 -15 -47 3 -54 8 -4 26 -3 40 0 20 5 25 13 25 36
0 26 -4 30 -28 30 -15 0 -33 -5 -40 -12z"/>
<path d="M4132 567 c-19 -22 -26 -101 -12 -141 8 -27 17 -36 33 -36 43 0 48
12 45 101 -3 82 -4 84 -29 87 -14 2 -31 -3 -37 -11z"/>
<path d="M4490 435 c-16 -19 -3 -55 20 -55 36 0 50 12 50 41 0 25 -4 29 -29
29 -16 0 -34 -7 -41 -15z"/>
</g>
</svg>
